<?xml version="1.0" standalone="no"?>
<!DOCTYPE svg PUBLIC "-//W3C//DTD SVG 20010904//EN"
 "http://www.w3.org/TR/2001/REC-SVG-20010904/DTD/svg10.dtd">
<svg version="1.0" xmlns="http://www.w3.org/2000/svg"
 width="180.000000pt" height="180.000000pt" viewBox="0 0 180.000000 180.000000"
 preserveAspectRatio="xMidYMid meet">

<g transform="translate(0.000000,180.000000) scale(0.100000,-0.100000)"
fill="#000000" stroke="none">
<path d="M456 1385 c-13 -74 -38 -296 -34 -301 3 -2 36 -5 73 -7 l67 -2 32 90
31 90 78 3 77 3 0 -364 0 -365 -47 -7 c-93 -13 -93 -13 -93 -59 0 -22 3 -51 6
-63 l6 -23 254 0 254 0 0 43 c0 23 3 51 6 63 5 19 -1 22 -68 35 l-73 14 -3
363 -2 362 78 0 78 0 34 -96 34 -95 66 7 c36 3 67 8 69 10 4 4 -25 246 -36
304 l-4 25 -439 0 -439 0 -5 -30z"/>
</g>
</svg>
